<svg width="872" height="871" viewBox="0 0 872 871" fill="none" xmlns="http://www.w3.org/2000/svg">
<path d="M757.851 729.482C767.247 719.102 776.112 708.253 784.403 696.969L787.181 693.801C794.71 683.093 801.85 672.394 808.582 661.287C810.042 659.402 811.36 657.411 812.546 655.34C818.359 644.5 823.906 633.801 829.197 623.225C829.197 620.057 831.975 617.278 833.558 614.5C837.92 604.19 842.282 593.491 845.847 582.783L850.209 572.076C853.376 561.766 856.154 551.456 858.932 540.758C858.932 536.395 861.312 532.032 862.1 528.068C864.48 516.971 866.063 506.263 867.647 495.167C867.647 490.804 867.647 486.84 869.629 482.477L869.62 482.494C871.221 467.079 872.017 451.601 872 436.105C872 320.443 826.065 209.515 744.298 127.733C662.531 45.9455 551.641 0 436 0C320.359 0 209.465 45.9455 127.702 127.733C45.9347 209.52 0.000288463 320.436 0.000288463 436.105C-0.0174049 451.6 0.778874 467.078 2.38027 482.494C2.38027 486.857 2.38027 490.822 4.36206 495.185C4.36206 506.282 7.52926 516.989 9.90922 528.086C9.90922 532.05 12.2892 536.413 13.0765 540.776C15.8546 551.484 18.6236 561.784 21.7999 572.093L26.1617 582.801C29.7271 593.509 34.0888 604.208 38.4506 614.517L42.8123 623.243C48.0941 634.083 53.6503 644.782 59.4629 655.358L63.4265 661.305C70.1682 672.402 77.299 683.11 84.828 693.818L87.6061 696.986L87.5973 696.969C95.8873 708.252 104.752 719.101 114.149 729.482C124.128 740.385 134.71 750.712 145.857 760.401C225.262 831.622 328.154 871 434.813 871C541.458 871 644.352 831.62 723.746 760.401C734.894 750.711 745.475 740.384 755.455 729.482H757.851ZM436.009 218.058C472.805 218.058 508.087 232.677 534.1 258.702C560.119 284.719 574.734 320.01 574.734 356.817C574.734 393.623 560.119 428.912 534.1 454.931C508.09 480.956 472.807 495.575 436.009 495.575C399.212 495.575 363.931 480.956 337.919 454.931C311.9 428.914 297.284 393.623 297.284 356.817C297.284 320.01 311.9 284.721 337.919 258.702C363.929 232.677 399.212 218.058 436.009 218.058ZM170.858 673.979C238.503 598.786 334.886 555.847 436.009 555.847C537.132 555.847 633.524 598.784 701.161 673.979C633.914 749.862 537.382 793.304 436.009 793.304C334.637 793.304 238.096 749.862 170.858 673.979Z" fill="#333333"/>
</svg>
