<svg width="533" height="154" viewBox="0 0 533 154" fill="none" xmlns="http://www.w3.org/2000/svg">
<path fill-rule="evenodd" clip-rule="evenodd" d="M5 0H0V5V149V154H5H149H154V149V132H144V144H10V10H144V22H154V5V0H149H5ZM99.24 34.28V47.72H63.6V70.4H92.16V83.36H63.6V119H46.68V34.28H99.24ZM151.704 33.44C162.024 33.44 170.584 36 177.384 41.12C184.184 46.16 188.544 53 190.464 61.64H172.704C171.024 57.8 168.344 54.76 164.664 52.52C161.064 50.2 156.784 49.04 151.824 49.04C146.944 49.04 142.624 50.16 138.864 52.4C135.104 54.64 132.184 57.84 130.104 62C128.024 66.16 126.984 71.04 126.984 76.64C126.984 85.52 129.344 92.44 134.064 97.4C138.864 102.36 145.384 104.84 153.624 104.84C159.704 104.84 164.904 103.04 169.224 99.44C173.624 95.84 176.464 90.84 177.744 84.44H149.064V72.32H191.904V88.64C190.704 94.24 188.344 99.4 184.824 104.12C181.384 108.84 176.824 112.64 171.144 115.52C165.544 118.32 159.104 119.72 151.824 119.72C143.504 119.72 136.144 117.92 129.744 114.32C123.424 110.64 118.504 105.56 114.984 99.08C111.544 92.52 109.824 85.04 109.824 76.64C109.824 68.24 111.544 60.8 114.984 54.32C118.504 47.76 123.424 42.64 129.744 38.96C136.064 35.28 143.384 33.44 151.704 33.44ZM265.136 14.992V22.608H264.136H244.94V35.46H260.124H261.124V42.804H260.124H244.94V63H243.94H235.352H234.352V14.992H235.352H264.136H265.136ZM311.118 14.312C315.606 14.312 319.663 15.3547 323.29 17.44C326.962 19.5253 329.84 22.4493 331.926 26.212C334.056 29.9293 335.122 34.1453 335.122 38.86C335.122 43.5747 334.056 47.8133 331.926 51.576C329.84 55.3387 326.962 58.2627 323.29 60.348C319.663 62.4333 315.606 63.476 311.118 63.476C311.042 63.476 310.966 63.4757 310.89 63.4751C310.799 63.4744 310.708 63.4732 310.618 63.4717C310.452 63.4746 310.285 63.476 310.118 63.476C305.63 63.476 301.55 62.4333 297.878 60.348C294.251 58.2627 291.372 55.3387 289.242 51.576C287.156 47.8133 286.114 43.5747 286.114 38.86C286.114 34.1453 287.156 29.9293 289.242 26.212C291.372 22.4493 294.251 19.5253 297.878 17.44C301.55 15.3547 305.63 14.312 310.118 14.312C310.285 14.312 310.452 14.3134 310.618 14.3163C310.784 14.3134 310.951 14.312 311.118 14.312ZM310.618 23.1588C308.013 23.2301 305.709 23.8625 303.706 25.056C301.575 26.3253 299.898 28.1613 298.674 30.564C297.495 32.9213 296.906 35.6867 296.906 38.86C296.906 42.0333 297.495 44.8213 298.674 47.224C299.898 49.5813 301.575 51.3947 303.706 52.664C305.709 53.8575 308.013 54.4899 310.618 54.5612C313.222 54.4899 315.526 53.8575 317.53 52.664C319.66 51.3947 321.315 49.5813 322.494 47.224C323.718 44.8213 324.33 42.0333 324.33 38.86C324.33 35.6867 323.718 32.9213 322.494 30.564C321.315 28.1613 319.66 26.3253 317.53 25.056C315.526 23.8625 313.222 23.2301 310.618 23.1588ZM372.136 44.3L383.356 63H384.356H393.964H394.964L382.996 43.824C386.804 43.008 389.706 41.376 391.7 38.928C393.74 36.48 394.76 33.4427 394.76 29.816C394.76 25.3733 393.287 21.792 390.34 19.072C387.439 16.352 383.2 14.992 377.624 14.992H376.624H359.332H358.332V63H359.332H367.92H368.92V44.3H372.136ZM375.808 23.084C378.619 23.084 380.682 23.7413 381.996 25.056C383.356 26.3253 384.036 28.116 384.036 30.428C384.036 35.2787 381.294 37.704 375.808 37.704H368.92V23.084H375.808ZM450.875 14.992V22.608H449.875H437.615V63H436.615H428.027H427.027V22.608H414.835H413.835V14.992H414.835H449.875H450.875ZM482.741 22.608V35.052H498.741H499.741V42.396H498.741H482.741V55.316H500.781H501.781V63H500.781H473.153H472.153V14.992H473.153H500.781H501.781V22.608H500.781H482.741ZM257.588 89.516C263.436 89.516 268.287 90.9667 272.14 93.868C275.993 96.724 278.464 100.6 279.552 105.496H278.552H269.488H268.488C267.536 103.32 266.017 101.597 263.932 100.328C262.014 99.0918 259.755 98.4368 257.155 98.363C254.594 98.4355 252.313 99.0678 250.312 100.26C248.181 101.529 246.527 103.343 245.348 105.7C244.169 108.057 243.58 110.823 243.58 113.996C243.58 119.028 244.917 122.949 247.592 125.76C250.207 128.462 253.723 129.866 258.141 129.97C261.387 129.882 264.179 128.864 266.516 126.916C269.009 124.876 270.619 122.043 271.344 118.416H256.092H255.092V111.548H256.092H279.368H280.368V120.796C279.688 123.969 278.351 126.893 276.356 129.568C274.407 132.243 271.823 134.396 268.604 136.028C265.431 137.615 261.781 138.408 257.656 138.408C257.488 138.408 257.321 138.407 257.154 138.404C256.989 138.407 256.823 138.408 256.656 138.408C251.941 138.408 247.771 137.388 244.144 135.348C240.563 133.263 237.775 130.384 235.78 126.712C233.831 122.995 232.856 118.756 232.856 113.996C232.856 109.236 233.831 105.02 235.78 101.348C237.775 97.6307 240.563 94.7293 244.144 92.644C247.725 90.5587 251.873 89.516 256.588 89.516C256.679 89.516 256.769 89.5163 256.859 89.517C256.94 89.5177 257.02 89.5186 257.1 89.5197C257.262 89.5172 257.425 89.516 257.588 89.516ZM314.135 119.3V138H313.135H304.547H303.547V89.992H304.547H321.839H322.839C328.415 89.992 332.654 91.352 335.555 94.072C338.502 96.792 339.975 100.373 339.975 104.816C339.975 108.443 338.955 111.48 336.915 113.928C334.921 116.376 332.019 118.008 328.211 118.824L340.179 138H339.179H329.571H328.571L317.351 119.3H314.135ZM329.251 105.428C329.251 110.279 326.509 112.704 321.023 112.704H314.135V98.084H321.023C323.834 98.084 325.897 98.7413 327.211 100.056C328.571 101.325 329.251 103.116 329.251 105.428ZM385.958 89.312C390.446 89.312 394.503 90.3547 398.13 92.44C401.802 94.5253 404.68 97.4493 406.766 101.212C408.896 104.929 409.962 109.145 409.962 113.86C409.962 118.575 408.896 122.813 406.766 126.576C404.68 130.339 401.802 133.263 398.13 135.348C394.503 137.433 390.446 138.476 385.958 138.476C385.79 138.476 385.624 138.475 385.458 138.472C385.292 138.475 385.125 138.476 384.958 138.476C380.47 138.476 376.39 137.433 372.718 135.348C369.091 133.263 366.212 130.339 364.082 126.576C361.996 122.813 360.954 118.575 360.954 113.86C360.954 109.145 361.996 104.929 364.082 101.212C366.212 97.4493 369.091 94.5253 372.718 92.44C376.39 90.3547 380.47 89.312 384.958 89.312C385.125 89.312 385.292 89.3134 385.458 89.3163C385.624 89.3134 385.79 89.312 385.958 89.312ZM392.37 127.664C390.366 128.858 388.062 129.49 385.458 129.561C382.853 129.49 380.549 128.858 378.546 127.664C376.415 126.395 374.738 124.581 373.514 122.224C372.335 119.821 371.746 117.033 371.746 113.86C371.746 110.687 372.335 107.921 373.514 105.564C374.738 103.161 376.415 101.325 378.546 100.056C380.549 98.8625 382.853 98.2301 385.458 98.1588C388.062 98.2301 390.366 98.8625 392.37 100.056C394.5 101.325 396.155 103.161 397.334 105.564C398.558 107.921 399.17 110.687 399.17 113.86C399.17 117.033 398.558 119.821 397.334 122.224C396.155 124.581 394.5 126.395 392.37 127.664ZM443.42 89.992V118.144C443.42 121.907 444.236 124.74 445.868 126.644C447.454 128.402 449.689 129.328 452.573 129.424C455.413 129.328 457.605 128.402 459.148 126.644C460.826 124.74 461.664 121.907 461.664 118.144V89.992H462.664H471.184H472.184V118.144C472.184 122.587 471.346 126.349 469.668 129.432C468.036 132.469 465.747 134.736 462.8 136.232C459.899 137.728 456.59 138.476 452.872 138.476C452.703 138.476 452.535 138.475 452.367 138.472C452.203 138.475 452.038 138.476 451.872 138.476C446.115 138.476 441.514 136.753 438.068 133.308C434.623 129.863 432.9 124.808 432.9 118.144V89.992H433.9H442.42H443.42ZM507.178 120.184V138H506.178H497.59H496.59V89.992H497.59H514.066H515.066C520.733 89.992 524.994 91.352 527.85 94.072C530.752 96.792 532.202 100.487 532.202 105.156C532.202 109.735 530.706 113.384 527.714 116.104C524.768 118.824 520.552 120.184 515.066 120.184H514.066H507.178ZM521.478 105.156C521.478 110.052 518.668 112.5 513.046 112.5H507.178V97.744H513.046C516.038 97.744 518.192 98.3787 519.506 99.648C520.821 100.917 521.478 102.753 521.478 105.156Z" fill="white"/>
</svg>
