<svg width="192" height="154" viewBox="0 0 192 154" fill="none" xmlns="http://www.w3.org/2000/svg">
<path fill-rule="evenodd" clip-rule="evenodd" d="M0 0H5H149H154V5V22H144V10H10V144H144V132H154V149V154H149H5H0V149V5V0ZM99.24 47.72V34.28H46.68V119H63.6V83.36H92.16V70.4H63.6V47.72H99.24ZM177.384 41.12C170.584 36 162.024 33.44 151.704 33.44C143.384 33.44 136.064 35.28 129.744 38.96C123.424 42.64 118.504 47.76 114.984 54.32C111.544 60.8 109.824 68.24 109.824 76.64C109.824 85.04 111.544 92.52 114.984 99.08C118.504 105.56 123.424 110.64 129.744 114.32C136.144 117.92 143.504 119.72 151.824 119.72C159.104 119.72 165.544 118.32 171.144 115.52C176.824 112.64 181.384 108.84 184.824 104.12C188.344 99.4 190.704 94.24 191.904 88.64V72.32H149.064V84.44H177.744C176.464 90.84 173.624 95.84 169.224 99.44C164.904 103.04 159.704 104.84 153.624 104.84C145.384 104.84 138.864 102.36 134.064 97.4C129.344 92.44 126.984 85.52 126.984 76.64C126.984 71.04 128.024 66.16 130.104 62C132.184 57.84 135.104 54.64 138.864 52.4C142.624 50.16 146.944 49.04 151.824 49.04C156.784 49.04 161.064 50.2 164.664 52.52C168.344 54.76 171.024 57.8 172.704 61.64H190.464C188.544 53 184.184 46.16 177.384 41.12Z" fill="black"/>
</svg>
